<svg height="450pt" viewBox="0 -26 450.64062 450" width="450pt" xmlns="http://www.w3.org/2000/svg"><path d="m436.800781 66.277344c7.804688 7.804687 7.808594 20.457031.011719 28.269531l-28.269531 28.320313-.039063-.039063-40.183594-40.179687-40.1875-40.191407-.039062-.039062 28.316406-28.269531c7.8125-7.796876 20.464844-7.792969 28.273438.007812zm0 0" fill="#fedb41"/><path d="m408.542969 122.867188-181.230469 181.601562c-.578125.585938-1.230469 1.09375-1.941406 1.507812l-40.1875-40.1875 183.070312-183.082031.066406-.058593 40.183594 40.179687zm0 0" fill="#00acea"/><path d="m368.320312 82.648438-.066406.058593-183.070312 183.082031-40.203125-40.203124c.421875-.707032.929687-1.355469 1.511719-1.9375l181.601562-181.230469.039062.039062zm0 0" fill="#00acea"/><path d="m185.183594 265.789062 40.1875 40.1875c-.894532.542969-1.867188.941407-2.890625 1.171876l-109.128907 30.460937 30.460938-109.132813c.234375-1.019531.628906-1.992187 1.167969-2.890624zm0 0" fill="#00efd1"/><g fill="#083863"><path d="m390.339844 8.5c-10.9375-10.898438-28.632813-10.90625-39.578125-.015625l-28.320313 28.269531-181.609375 181.238282c-2.332031 2.339843-3.980469 5.269531-4.765625 8.476562l-30.421875 108.988281c-.773437 2.78125.007813 5.765625 2.050781 7.808594 2.042969 2.042969 5.027344 2.824219 7.808594 2.046875l108.964844-30.414062c1.765625-.421876 3.457031-1.117188 5.011719-2.058594 1.277343-.753906 2.449219-1.667969 3.496093-2.722656l181.226563-181.597657 28.273437-28.324219c10.890626-10.945312 10.882813-28.636718-.015624-39.574218zm-62.253906 45.226562 28.917968 28.917969-171.820312 171.832031-29.101563-29.101562zm-179.363282 186.914063 61.597656 61.597656-85.441406 23.847657zm76.859375 54.234375-29.085937-29.089844 171.820312-171.828125 28.914063 28.917969zm205.566407-205.976562-22.613282 22.652343-69.125-69.121093 22.652344-22.617188c4.6875-4.671875 12.273438-4.671875 16.960938 0l52.121093 52.121094c4.675781 4.6875 4.675781 12.273437.003907 16.964844zm0 0"/><path d="m138.332031 398.957031c34.648438 0 52.132813-9.65625 69.039063-19 15.828125-8.742187 30.777344-17 61.300781-17 30.519531 0 45.472656 8.261719 61.296875 17 16.90625 9.339844 34.386719 19 69.027344 19 4.421875 0 8-3.582031 8-8s-3.578125-8-8-8c-30.515625 0-45.464844-8.257812-61.289063-17-16.90625-9.339843-34.390625-19-69.039062-19-34.648438 0-52.132813 9.65625-69.039063 19-15.828125 8.746094-30.777344 17-61.300781 17-30.519531 0-45.460937-8.257812-61.289063-17-16.90625-9.339843-34.390624-19-69.039062-19-4.417969 0-8 3.582031-8 8s3.582031 8 8 8c30.523438 0 45.472656 8.261719 61.300781 17 16.910157 9.34375 34.390625 19 69.03125 19zm0 0"/></g></svg>